<svg width="136" height="32" viewBox="0 0 136 32" fill="none" xmlns="http://www.w3.org/2000/svg">
<circle cx="16" cy="16" r="16" fill="#151515"/>
<path d="M16 0C16 0 12.8453 12.8453 16 16C19.1547 19.1547 32 16 32 16C32 16 25.7492 19.5096 22.56 22.72C19.4322 25.8686 16 32 16 32C16 32 19.2695 19.0167 15.7213 15.675C12.7437 12.8707 0 16 0 16C0 16 5.65026 12.7632 8.64 9.92C12.1355 6.59577 16 0 16 0Z" fill="white"/>
<path d="M43.517 25V7.54545H50.4034C51.7273 7.54545 52.8551 7.7983 53.7869 8.30398C54.7188 8.80398 55.429 9.5 55.9176 10.392C56.4119 11.2784 56.6591 12.3011 56.6591 13.4602C56.6591 14.6193 56.4091 15.642 55.9091 16.5284C55.4091 17.4148 54.6847 18.1051 53.7358 18.5994C52.7926 19.0937 51.6506 19.3409 50.3097 19.3409H45.9205V16.3835H49.7131C50.4233 16.3835 51.0085 16.2614 51.4688 16.017C51.9347 15.767 52.2813 15.4233 52.5085 14.9858C52.7415 14.5426 52.858 14.0341 52.858 13.4602C52.858 12.8807 52.7415 12.375 52.5085 11.9432C52.2813 11.5057 51.9347 11.1676 51.4688 10.929C51.0028 10.6847 50.4119 10.5625 49.696 10.5625H47.2074V25H43.517ZM62.3693 25.2472C61.5341 25.2472 60.7898 25.1023 60.1364 24.8125C59.483 24.517 58.9659 24.0824 58.5852 23.5085C58.2102 22.929 58.0227 22.2074 58.0227 21.3438C58.0227 20.6165 58.1563 20.0057 58.4233 19.5114C58.6903 19.017 59.054 18.6193 59.5142 18.3182C59.9744 18.017 60.4972 17.7898 61.0824 17.6364C61.6733 17.483 62.2926 17.375 62.9403 17.3125C63.7017 17.233 64.3153 17.1591 64.7812 17.0909C65.2472 17.017 65.5852 16.9091 65.7955 16.767C66.0057 16.625 66.1108 16.4148 66.1108 16.1364V16.0852C66.1108 15.5455 65.9403 15.1278 65.5994 14.8324C65.2642 14.5369 64.7869 14.3892 64.1676 14.3892C63.5142 14.3892 62.9943 14.5341 62.608 14.8239C62.2216 15.108 61.9659 15.4659 61.8409 15.8977L58.483 15.625C58.6534 14.8295 58.9886 14.142 59.4886 13.5625C59.9886 12.9773 60.6335 12.5284 61.4233 12.2159C62.2188 11.8977 63.1392 11.7386 64.1847 11.7386C64.9119 11.7386 65.608 11.8239 66.2727 11.9943C66.9432 12.1648 67.5369 12.429 68.054 12.7869C68.5767 13.1449 68.9886 13.6051 69.2898 14.1676C69.5909 14.7244 69.7415 15.392 69.7415 16.1705V25H66.2983V23.1847H66.196C65.9858 23.5938 65.7045 23.9545 65.3523 24.267C65 24.5739 64.5767 24.8153 64.0824 24.9915C63.5881 25.1619 63.017 25.2472 62.3693 25.2472ZM63.4091 22.7415C63.9432 22.7415 64.4148 22.6364 64.8239 22.4261C65.233 22.2102 65.554 21.9205 65.7869 21.5568C66.0199 21.1932 66.1364 20.7812 66.1364 20.321V18.9318C66.0227 19.0057 65.8665 19.0739 65.6676 19.1364C65.4744 19.1932 65.2557 19.2472 65.0114 19.2983C64.767 19.3437 64.5227 19.3864 64.2784 19.4261C64.0341 19.4602 63.8125 19.4915 63.6136 19.5199C63.1875 19.5824 62.8153 19.6818 62.4972 19.8182C62.179 19.9545 61.9318 20.1392 61.7557 20.3722C61.5795 20.5994 61.4915 20.8835 61.4915 21.2244C61.4915 21.7188 61.6705 22.0966 62.0284 22.358C62.392 22.6136 62.8523 22.7415 63.4091 22.7415ZM74.331 29.9091C73.8707 29.9091 73.4389 29.8722 73.0355 29.7983C72.6378 29.7301 72.3082 29.642 72.0469 29.5341L72.8651 26.8239C73.2912 26.9545 73.6747 27.0256 74.0156 27.0369C74.3622 27.0483 74.6605 26.9688 74.9105 26.7983C75.1662 26.6278 75.3736 26.3381 75.5327 25.929L75.7457 25.375L71.0497 11.9091H74.8679L77.5781 21.5227H77.7145L80.4503 11.9091H84.294L79.206 26.4148C78.9616 27.1193 78.6293 27.733 78.2088 28.2557C77.794 28.7841 77.2685 29.1903 76.6321 29.4744C75.9957 29.7642 75.2287 29.9091 74.331 29.9091ZM93.1918 11.9091V14.6364H85.1122V11.9091H93.1918ZM86.9616 25V10.9631C86.9616 10.0142 87.1463 9.22727 87.5156 8.60227C87.8906 7.97727 88.402 7.50852 89.0497 7.19602C89.6974 6.88352 90.4332 6.72727 91.2571 6.72727C91.8139 6.72727 92.3224 6.76989 92.7827 6.85511C93.2486 6.94034 93.5952 7.01705 93.8224 7.08523L93.1747 9.8125C93.0327 9.76705 92.8565 9.72443 92.6463 9.68466C92.4418 9.64489 92.2315 9.625 92.0156 9.625C91.4815 9.625 91.1094 9.75 90.8991 10C90.6889 10.2443 90.5838 10.5881 90.5838 11.0312V25H86.9616ZM99.0405 7.54545V25H95.4098V7.54545H99.0405ZM107.864 25.2557C106.54 25.2557 105.395 24.9744 104.429 24.4119C103.469 23.8437 102.727 23.054 102.205 22.0426C101.682 21.0256 101.42 19.8466 101.42 18.5057C101.42 17.1534 101.682 15.9716 102.205 14.9602C102.727 13.9432 103.469 13.1534 104.429 12.5909C105.395 12.0227 106.54 11.7386 107.864 11.7386C109.188 11.7386 110.33 12.0227 111.29 12.5909C112.256 13.1534 113 13.9432 113.523 14.9602C114.045 15.9716 114.307 17.1534 114.307 18.5057C114.307 19.8466 114.045 21.0256 113.523 22.0426C113 23.054 112.256 23.8437 111.29 24.4119C110.33 24.9744 109.188 25.2557 107.864 25.2557ZM107.881 22.4432C108.483 22.4432 108.986 22.2727 109.389 21.9318C109.793 21.5852 110.097 21.1136 110.301 20.517C110.511 19.9205 110.616 19.2415 110.616 18.4801C110.616 17.7188 110.511 17.0398 110.301 16.4432C110.097 15.8466 109.793 15.375 109.389 15.0284C108.986 14.6818 108.483 14.5085 107.881 14.5085C107.273 14.5085 106.761 14.6818 106.347 15.0284C105.938 15.375 105.628 15.8466 105.418 16.4432C105.213 17.0398 105.111 17.7188 105.111 18.4801C105.111 19.2415 105.213 19.9205 105.418 20.517C105.628 21.1136 105.938 21.5852 106.347 21.9318C106.761 22.2727 107.273 22.4432 107.881 22.4432ZM118.922 25L115.359 11.9091H119.033L121.061 20.7045H121.18L123.294 11.9091H126.899L129.047 20.6534H129.158L131.152 11.9091H134.817L131.263 25H127.419L125.169 16.767H125.007L122.757 25H118.922Z" fill="#151515"/>
</svg>
