<svg width="24" height="24" viewBox="0 0 24 24" fill="white" xmlns="http://www.w3.org/2000/svg">
<path d="M6.96937 8.03063C6.82864 7.88989 6.74958 7.69902 6.74958 7.5C6.74958 7.30098 6.82864 7.11011 6.96938 6.96938C7.11011 6.82864 7.30098 6.74958 7.5 6.74958C7.69902 6.74958 7.88989 6.82864 8.03063 6.96937L11.25 10.1897V2.25C11.25 2.05109 11.329 1.86032 11.4697 1.71967C11.6103 1.57902 11.8011 1.5 12 1.5C12.1989 1.5 12.3897 1.57902 12.5303 1.71967C12.671 1.86032 12.75 2.05109 12.75 2.25V10.1897L15.9694 6.96937C16.1101 6.82864 16.301 6.74958 16.5 6.74958C16.699 6.74958 16.8899 6.82864 17.0306 6.96937C17.1714 7.11011 17.2504 7.30098 17.2504 7.5C17.2504 7.69902 17.1714 7.88989 17.0306 8.03063L12.5306 12.5306C12.461 12.6004 12.3783 12.6557 12.2872 12.6934C12.1962 12.7312 12.0986 12.7506 12 12.7506C11.9014 12.7506 11.8038 12.7312 11.7128 12.6934C11.6217 12.6557 11.539 12.6004 11.4694 12.5306L6.96937 8.03063ZM22.5 12.75V18.75C22.5 19.1478 22.342 19.5294 22.0607 19.8107C21.7794 20.092 21.3978 20.25 21 20.25H3C2.60218 20.25 2.22064 20.092 1.93934 19.8107C1.65804 19.5294 1.5 19.1478 1.5 18.75V12.75C1.5 12.3522 1.65804 11.9706 1.93934 11.6893C2.22064 11.408 2.60218 11.25 3 11.25H7.9125C7.96176 11.25 8.01055 11.2596 8.05607 11.2784C8.10159 11.2973 8.14296 11.3249 8.17781 11.3597L10.4062 13.5938C10.6153 13.8035 10.8637 13.9699 11.1372 14.0835C11.4107 14.1971 11.7039 14.2555 12 14.2555C12.2961 14.2555 12.5893 14.1971 12.8628 14.0835C13.1363 13.9699 13.3847 13.8035 13.5938 13.5938L15.825 11.3625C15.8942 11.2918 15.9886 11.2514 16.0875 11.25H21C21.3978 11.25 21.7794 11.408 22.0607 11.6893C22.342 11.9706 22.5 12.3522 22.5 12.75ZM18.75 15.75C18.75 15.5275 18.684 15.31 18.5604 15.125C18.4368 14.94 18.2611 14.7958 18.0555 14.7106C17.85 14.6255 17.6238 14.6032 17.4055 14.6466C17.1873 14.69 16.9868 14.7972 16.8295 14.9545C16.6722 15.1118 16.565 15.3123 16.5216 15.5305C16.4782 15.7488 16.5005 15.975 16.5856 16.1805C16.6708 16.3861 16.815 16.5618 17 16.6854C17.185 16.809 17.4025 16.875 17.625 16.875C17.9234 16.875 18.2095 16.7565 18.4205 16.5455C18.6315 16.3345 18.75 16.0484 18.75 15.75Z" fill="white"/>
</svg>
